<?xml version="1.0" encoding="utf-8"?><svg viewBox="0 0 42 42" xmlns="http://www.w3.org/2000/svg" xmlns:xlink="http://www.w3.org/1999/xlink"><style>:root>svg{display:none}:root>svg:target{display:block}</style><svg fill="none" viewBox="0 0 28 28" id="1" xmlns="http://www.w3.org/2000/svg"><g filter="url(#afilter0_i_10_99)"><rect width="28" height="28" rx="5" fill="#F4664B"/></g><path d="M10.136 20.24c-.784 0-1.477-.17-2.08-.512a3.802 3.802 0 01-1.424-1.424c-.341-.603-.512-1.296-.512-2.08v-3.968c0-.784.17-1.477.512-2.08A3.743 3.743 0 018.056 8.76c.603-.347 1.296-.52 2.08-.52s1.477.173 2.08.52a3.686 3.686 0 011.416 1.416c.347.603.52 1.296.52 2.08v3.968c0 .784-.173 1.477-.52 2.08a3.743 3.743 0 01-1.416 1.424c-.603.341-1.296.512-2.08.512zm0-1.6c.427 0 .813-.101 1.16-.304.352-.208.632-.485.84-.832.208-.352.312-.744.312-1.176v-4.192c0-.427-.104-.813-.312-1.16a2.285 2.285 0 00-.84-.832 2.211 2.211 0 00-1.16-.312 2.304 2.304 0 00-2 1.144 2.211 2.211 0 00-.312 1.16v4.192c0 .432.104.824.312 1.176.208.347.485.624.832.832.352.203.741.304 1.168.304zM18.394 20v-9.68l-2.168 1.32V9.776l2.168-1.296h1.704V20h-1.704z" fill="#fff"/><defs><filter id="afilter0_i_10_99" x="0" y="0" width="28" height="28" filterUnits="userSpaceOnUse" color-interpolation-filters="sRGB"><feFlood flood-opacity="0" result="BackgroundImageFix"/><feBlend in="SourceGraphic" in2="BackgroundImageFix" result="shape"/><feColorMatrix in="SourceAlpha" values="0 0 0 0 0 0 0 0 0 0 0 0 0 0 0 0 0 0 127 0" result="hardAlpha"/><feOffset/><feGaussianBlur stdDeviation="2"/><feComposite in2="hardAlpha" operator="arithmetic" k2="-1" k3="1"/><feColorMatrix values="0 0 0 0 1 0 0 0 0 0.670907 0 0 0 0 0.608333 0 0 0 1 0"/><feBlend in2="shape" result="effect1_innerShadow_10_99"/></filter></defs></svg><svg fill="none" viewBox="0 0 28 28" id="2" xmlns="http://www.w3.org/2000/svg"><g filter="url(#bfilter0_i_10_100)"><rect width="28" height="28" rx="5" fill="#F4664B"/></g><path d="M9.136 20.24c-.784 0-1.477-.17-2.08-.512a3.802 3.802 0 01-1.424-1.424c-.341-.603-.512-1.296-.512-2.08v-3.968c0-.784.17-1.477.512-2.08A3.743 3.743 0 017.056 8.76c.603-.347 1.296-.52 2.08-.52s1.477.173 2.08.52a3.686 3.686 0 011.416 1.416c.347.603.52 1.296.52 2.08v3.968c0 .784-.173 1.477-.52 2.08a3.743 3.743 0 01-1.416 1.424c-.603.341-1.296.512-2.08.512zm0-1.6c.427 0 .813-.101 1.16-.304.352-.208.632-.485.84-.832.208-.352.312-.744.312-1.176v-4.192c0-.427-.104-.813-.312-1.16a2.285 2.285 0 00-.84-.832 2.211 2.211 0 00-1.16-.312 2.304 2.304 0 00-2 1.144 2.211 2.211 0 00-.312 1.16v4.192c0 .432.104.824.312 1.176.208.347.485.624.832.832.352.203.741.304 1.168.304zm5.93 1.352l.008-1.488 5.016-4.496c.405-.357.68-.699.824-1.024.149-.325.224-.65.224-.976 0-.41-.091-.779-.272-1.104a2.043 2.043 0 00-.752-.784 2.104 2.104 0 00-1.104-.288 2.171 2.171 0 00-1.92 1.096c-.187.33-.278.688-.272 1.072h-1.712c0-.747.168-1.4.504-1.96a3.55 3.55 0 011.4-1.32c.592-.32 1.269-.48 2.032-.48.725 0 1.376.165 1.952.496.576.325 1.029.773 1.36 1.344.336.57.504 1.221.504 1.952 0 .528-.07.976-.208 1.344-.139.368-.347.71-.624 1.024a11.92 11.92 0 01-1.04 1.024l-3.872 3.456-.184-.48h5.928v1.592h-7.792z" fill="#fff"/><defs><filter id="bfilter0_i_10_100" x="0" y="0" width="28" height="28" filterUnits="userSpaceOnUse" color-interpolation-filters="sRGB"><feFlood flood-opacity="0" result="BackgroundImageFix"/><feBlend in="SourceGraphic" in2="BackgroundImageFix" result="shape"/><feColorMatrix in="SourceAlpha" values="0 0 0 0 0 0 0 0 0 0 0 0 0 0 0 0 0 0 127 0" result="hardAlpha"/><feOffset/><feGaussianBlur stdDeviation="2"/><feComposite in2="hardAlpha" operator="arithmetic" k2="-1" k3="1"/><feColorMatrix values="0 0 0 0 1 0 0 0 0 0.670907 0 0 0 0 0.608333 0 0 0 1 0"/><feBlend in2="shape" result="effect1_innerShadow_10_100"/></filter></defs></svg><svg fill="none" viewBox="0 0 28 28" id="3" xmlns="http://www.w3.org/2000/svg"><g filter="url(#cfilter0_i_10_103)"><rect width="28" height="28" rx="5" fill="#F4664B"/></g><path d="M9.136 20.24c-.784 0-1.477-.17-2.08-.512a3.802 3.802 0 01-1.424-1.424c-.341-.603-.512-1.296-.512-2.08v-3.968c0-.784.17-1.477.512-2.08A3.743 3.743 0 017.056 8.76c.603-.347 1.296-.52 2.08-.52s1.477.173 2.08.52a3.686 3.686 0 011.416 1.416c.347.603.52 1.296.52 2.08v3.968c0 .784-.173 1.477-.52 2.08a3.743 3.743 0 01-1.416 1.424c-.603.341-1.296.512-2.08.512zm0-1.6c.427 0 .813-.101 1.16-.304.352-.208.632-.485.84-.832.208-.352.312-.744.312-1.176v-4.192c0-.427-.104-.813-.312-1.16a2.285 2.285 0 00-.84-.832 2.211 2.211 0 00-1.16-.312 2.304 2.304 0 00-2 1.144 2.211 2.211 0 00-.312 1.16v4.192c0 .432.104.824.312 1.176.208.347.485.624.832.832.352.203.741.304 1.168.304zm9.474 1.576c-.571 0-1.107-.107-1.608-.32a3.837 3.837 0 01-1.304-.928 3.665 3.665 0 01-.792-1.416l1.616-.448c.154.496.424.877.808 1.144.384.261.81.39 1.28.384a2.174 2.174 0 001.112-.296c.32-.192.57-.45.752-.776.181-.33.272-.71.272-1.136 0-.64-.2-1.168-.6-1.584-.395-.416-.912-.624-1.552-.624a2.09 2.09 0 00-.56.08 2.866 2.866 0 00-.528.208l-.784-1.32 4.064-3.592.176.48h-5.6V8.48h6.928v1.592l-3.376 3.248-.016-.544c.725 0 1.354.163 1.888.488.533.32.944.757 1.232 1.312.293.55.44 1.165.44 1.848 0 .736-.174 1.39-.52 1.96a3.678 3.678 0 01-1.384 1.344c-.576.325-1.224.488-1.944.488z" fill="#fff"/><defs><filter id="cfilter0_i_10_103" x="0" y="0" width="28" height="28" filterUnits="userSpaceOnUse" color-interpolation-filters="sRGB"><feFlood flood-opacity="0" result="BackgroundImageFix"/><feBlend in="SourceGraphic" in2="BackgroundImageFix" result="shape"/><feColorMatrix in="SourceAlpha" values="0 0 0 0 0 0 0 0 0 0 0 0 0 0 0 0 0 0 127 0" result="hardAlpha"/><feOffset/><feGaussianBlur stdDeviation="2"/><feComposite in2="hardAlpha" operator="arithmetic" k2="-1" k3="1"/><feColorMatrix values="0 0 0 0 1 0 0 0 0 0.670907 0 0 0 0 0.608333 0 0 0 1 0"/><feBlend in2="shape" result="effect1_innerShadow_10_103"/></filter></defs></svg><svg fill="none" viewBox="0 0 28 28" id="4" xmlns="http://www.w3.org/2000/svg"><g filter="url(#dfilter0_i_10_106)"><rect width="28" height="28" rx="5" fill="#F4664B"/></g><path d="M9.136 20.24c-.784 0-1.477-.17-2.08-.512a3.802 3.802 0 01-1.424-1.424c-.341-.603-.512-1.296-.512-2.08v-3.968c0-.784.17-1.477.512-2.08A3.743 3.743 0 017.056 8.76c.603-.347 1.296-.52 2.08-.52s1.477.173 2.08.52a3.686 3.686 0 011.416 1.416c.347.603.52 1.296.52 2.08v3.968c0 .784-.173 1.477-.52 2.08a3.743 3.743 0 01-1.416 1.424c-.603.341-1.296.512-2.08.512zm0-1.6c.427 0 .813-.101 1.16-.304.352-.208.632-.485.84-.832.208-.352.312-.744.312-1.176v-4.192c0-.427-.104-.813-.312-1.16a2.285 2.285 0 00-.84-.832 2.211 2.211 0 00-1.16-.312 2.304 2.304 0 00-2 1.144 2.211 2.211 0 00-.312 1.16v4.192c0 .432.104.824.312 1.176.208.347.485.624.832.832.352.203.741.304 1.168.304zM20.266 20v-2.008h-5.2v-1.584L18.81 8.48h1.912l-3.744 7.928h3.288v-3.12h1.696v3.12h1.144v1.584h-1.144V20h-1.696z" fill="#fff"/><defs><filter id="dfilter0_i_10_106" x="0" y="0" width="28" height="28" filterUnits="userSpaceOnUse" color-interpolation-filters="sRGB"><feFlood flood-opacity="0" result="BackgroundImageFix"/><feBlend in="SourceGraphic" in2="BackgroundImageFix" result="shape"/><feColorMatrix in="SourceAlpha" values="0 0 0 0 0 0 0 0 0 0 0 0 0 0 0 0 0 0 127 0" result="hardAlpha"/><feOffset/><feGaussianBlur stdDeviation="2"/><feComposite in2="hardAlpha" operator="arithmetic" k2="-1" k3="1"/><feColorMatrix values="0 0 0 0 1 0 0 0 0 0.670907 0 0 0 0 0.608333 0 0 0 1 0"/><feBlend in2="shape" result="effect1_innerShadow_10_106"/></filter></defs></svg><svg fill="none" viewBox="0 0 28 28" id="5" xmlns="http://www.w3.org/2000/svg"><g filter="url(#efilter0_i_10_109)"><rect width="28" height="28" rx="5" fill="#F4664B"/></g><path d="M9.136 20.24c-.784 0-1.477-.17-2.08-.512a3.802 3.802 0 01-1.424-1.424c-.341-.603-.512-1.296-.512-2.08v-3.968c0-.784.17-1.477.512-2.08A3.743 3.743 0 017.056 8.76c.603-.347 1.296-.52 2.08-.52s1.477.173 2.08.52a3.686 3.686 0 011.416 1.416c.347.603.52 1.296.52 2.08v3.968c0 .784-.173 1.477-.52 2.08a3.743 3.743 0 01-1.416 1.424c-.603.341-1.296.512-2.08.512zm0-1.6c.427 0 .813-.101 1.16-.304.352-.208.632-.485.84-.832.208-.352.312-.744.312-1.176v-4.192c0-.427-.104-.813-.312-1.16a2.285 2.285 0 00-.84-.832 2.211 2.211 0 00-1.16-.312 2.304 2.304 0 00-2 1.144 2.211 2.211 0 00-.312 1.16v4.192c0 .432.104.824.312 1.176.208.347.485.624.832.832.352.203.741.304 1.168.304zm9.666 1.6c-.592 0-1.144-.12-1.656-.36a3.954 3.954 0 01-1.304-1.008 3.9 3.9 0 01-.776-1.488l1.608-.432c.09.341.245.637.464.888.224.25.485.445.784.584.298.133.608.2.928.2.421 0 .802-.101 1.144-.304.346-.203.618-.475.816-.816.202-.341.304-.717.304-1.128 0-.421-.104-.803-.312-1.144a2.218 2.218 0 00-.824-.808 2.168 2.168 0 00-1.128-.304c-.47 0-.867.093-1.192.28a2.43 2.43 0 00-.76.648l-1.456-.512.352-6.056h6.216v1.576h-5.36l.68-.632-.28 4.536-.328-.424a3.048 3.048 0 011.088-.696c.421-.16.84-.24 1.256-.24.714 0 1.352.165 1.912.496.565.33 1.01.781 1.336 1.352.325.565.488 1.208.488 1.928a3.6 3.6 0 01-.552 1.952 4.119 4.119 0 01-1.464 1.392c-.608.347-1.27.52-1.984.52z" fill="#fff"/><defs><filter id="efilter0_i_10_109" x="0" y="0" width="28" height="28" filterUnits="userSpaceOnUse" color-interpolation-filters="sRGB"><feFlood flood-opacity="0" result="BackgroundImageFix"/><feBlend in="SourceGraphic" in2="BackgroundImageFix" result="shape"/><feColorMatrix in="SourceAlpha" values="0 0 0 0 0 0 0 0 0 0 0 0 0 0 0 0 0 0 127 0" result="hardAlpha"/><feOffset/><feGaussianBlur stdDeviation="2"/><feComposite in2="hardAlpha" operator="arithmetic" k2="-1" k3="1"/><feColorMatrix values="0 0 0 0 1 0 0 0 0 0.670907 0 0 0 0 0.608333 0 0 0 1 0"/><feBlend in2="shape" result="effect1_innerShadow_10_109"/></filter></defs></svg><svg fill="none" viewBox="0 0 18 20" id="flag" xmlns="http://www.w3.org/2000/svg"><path d="M0 .75v18.5c0 .41.326.75.74.75a.75.75 0 00.74-.75v-6.44h5.644c.543 0 .987-.45.987-1V1c0-.55-.444-1-.987-1H.74C.326 0 0 .34 0 .75zM14.446 9.33c-.316-.28-.494-.63-.494-1s.178-.72.494-1l2.97-2.57c.532-.46.72-1.15.483-1.79-.257-.71-.947-1.17-1.756-1.17h-5.565a.996.996 0 00-.987 1v11.06c0 .55.444 1 .987 1h5.565c.809 0 1.5-.46 1.756-1.17a1.605 1.605 0 00-.483-1.79l-2.97-2.57z" fill="#F4664B"/></svg><svg fill="none" viewBox="0 0 25 23" id="hat" xmlns="http://www.w3.org/2000/svg"><path d="M20.075 11.32v4.001c0 .719-.375 1.378-.988 1.773a13.49 13.49 0 01-7.237 2.096c-1.475 0-4.375-.275-7.237-2.108a2.065 2.065 0 01-.976-1.76v-3.99l1.876.79 5.062 2.169c.288.132.563.18.713.191.374.072.75.072 1.1.013.175-.024.45-.072.737-.204l6.95-2.971z" fill="#F4664B"/><path d="M25 17.477c0 .85-.525 1.593-1.288 1.929v1.76c0 .504-.424.9-.937.9-.525 0-.938-.396-.938-.9v-1.76c-.762-.335-1.287-1.078-1.287-1.929 0-.85.525-1.593 1.287-1.928V8.864l-8.712 3.726c-.287.132-.563.18-.738.203-.35.06-.725.06-1.1-.012a2.222 2.222 0 01-.712-.191l-5.062-2.168-1.875-.791-2.175-.934C.563 8.313 0 7.559 0 6.708c0-.85.563-1.617 1.463-2L10.588.813A3.434 3.434 0 0113.1.802l9.15 3.905c.9.384 1.462 1.15 1.462 2.001v8.84c.763.336 1.288 1.079 1.288 1.93z" fill="#F4664B"/></svg><svg fill="none" viewBox="0 0 31 31" id="know-svg" xmlns="http://www.w3.org/2000/svg"><g filter="url(#hfilter0_i_12_91)"><rect width="31" height="31" rx="4.306" fill="#F4664B"/></g><path d="M20.787 6.889H10.161a2.42 2.42 0 00-2.411 2.42V21.69a2.42 2.42 0 002.411 2.42h10.626a2.42 2.42 0 002.411-2.42V9.308a2.42 2.42 0 00-2.41-2.42zM12.822 9.54h5.304c.362 0 .646.293.646.646a.64.64 0 01-.646.646h-5.304a.64.64 0 01-.646-.646c0-.353.284-.646.646-.646zm5.072 3.306a.65.65 0 01-.646.646H13.7a.645.645 0 110-1.292h3.548c.353 0 .646.285.646.646zm4.013 8.844c0 .62-.5 1.128-1.12 1.128H10.161a1.125 1.125 0 010-2.247h10.626c.405 0 .784-.104 1.12-.276v1.395z" fill="#fff"/><defs><filter id="hfilter0_i_12_91" x="0" y="0" width="31" height="31" filterUnits="userSpaceOnUse" color-interpolation-filters="sRGB"><feFlood flood-opacity="0" result="BackgroundImageFix"/><feBlend in="SourceGraphic" in2="BackgroundImageFix" result="shape"/><feColorMatrix in="SourceAlpha" values="0 0 0 0 0 0 0 0 0 0 0 0 0 0 0 0 0 0 127 0" result="hardAlpha"/><feOffset/><feGaussianBlur stdDeviation="1.722"/><feComposite in2="hardAlpha" operator="arithmetic" k2="-1" k3="1"/><feColorMatrix values="0 0 0 0 1 0 0 0 0 0.670907 0 0 0 0 0.608333 0 0 0 1 0"/><feBlend in2="shape" result="effect1_innerShadow_12_91"/></filter></defs></svg><svg fill="none" viewBox="0 0 42 42" id="smile" xmlns="http://www.w3.org/2000/svg"><path d="M21 0C9.429 0 0 9.429 0 21s9.429 21 21 21 21-9.429 21-21S32.571 0 21 0zm7.56 14.154a2.635 2.635 0 012.646 2.646 2.635 2.635 0 01-2.646 2.646 2.653 2.653 0 01-2.667-2.646 2.653 2.653 0 012.667-2.646zm-15.12 0a2.653 2.653 0 012.667 2.646 2.653 2.653 0 01-2.667 2.646 2.648 2.648 0 01-2.646-2.646 2.648 2.648 0 012.646-2.646zm17.451 16.569a1.552 1.552 0 01-2.205-.252c-.483-.588-3.087-3.549-7.413-3.57h-.084c-4.557 0-7.287 3.318-7.581 3.696a1.58 1.58 0 01-1.239.609c-.336 0-.693-.105-.966-.336a1.55 1.55 0 01-.273-2.205c.63-.819 4.137-4.914 10.059-4.914h.105c5.754.042 9.198 3.969 9.849 4.767.546.672.42 1.659-.252 2.205z" fill="#F4664B"/></svg><svg fill="none" viewBox="0 0 8 9" id="triangle" xmlns="http://www.w3.org/2000/svg"><path d="M7.5 3.634a1 1 0 010 1.732L2.25 8.397a1 1 0 01-1.5-.866V1.47a1 1 0 011.5-.866L7.5 3.634z" fill="#74747E"/></svg></svg>